<svg width="30" height="31" viewBox="0 0 30 31" fill="none" xmlns="http://www.w3.org/2000/svg">
<g filter="url(#filter0_d_1_3771)">
<path d="M15.0032 2.00102C16.3032 1.95927 17.5984 2.17927 18.8117 2.64796C20.025 3.11664 21.1318 3.82443 22.0661 4.72929C23.0005 5.63414 23.7435 6.71758 24.2508 7.91524C24.7582 9.11289 25.0197 10.4003 25.0197 11.701C25.0197 13.0017 24.7582 14.2891 24.2508 15.4868C23.7435 16.6844 23.0005 17.7679 22.0661 18.6727C21.1318 19.5776 20.025 20.2854 18.8117 20.7541C17.5984 21.2228 16.3032 21.4428 15.0032 21.401C14.0253 21.4037 13.0515 21.2746 12.1082 21.017C11.9312 20.9687 11.743 20.9828 11.5752 21.057L9.5912 21.933C9.47124 21.9858 9.34016 22.0083 9.20947 21.9986C9.07878 21.9889 8.95247 21.9472 8.84162 21.8773C8.73076 21.8075 8.63875 21.7114 8.57364 21.5977C8.50854 21.484 8.47233 21.356 8.4682 21.225L8.4142 19.445C8.40969 19.3369 8.38346 19.2308 8.33708 19.1331C8.29069 19.0353 8.22509 18.9479 8.1442 18.876C7.14037 17.9724 6.341 16.8649 5.7995 15.6275C5.25801 14.3902 4.98686 13.0515 5.0042 11.701C4.9966 10.3996 5.25234 9.11002 5.75603 7.90996C6.25972 6.7099 7.00096 5.62413 7.93515 4.71797C8.86934 3.81181 9.97717 3.10398 11.192 2.63706C12.4068 2.17014 13.7026 1.95379 15.0032 2.00102Z" stroke="black" stroke-width="1.739" stroke-miterlimit="10" shape-rendering="crispEdges"/>
</g>
<path fill-rule="evenodd" clip-rule="evenodd" d="M20.7901 10.132C20.8736 10.0009 20.9081 9.84443 20.8875 9.69033C20.8668 9.53623 20.7923 9.3944 20.6772 9.28992C20.562 9.18543 20.4137 9.12502 20.2583 9.11936C20.1029 9.11371 19.9505 9.16317 19.8281 9.25901L17.2721 11.309C17.1631 11.3916 17.0302 11.4364 16.8934 11.4368C16.7567 11.4371 16.6235 11.393 16.5141 11.311L14.0601 9.47001C13.886 9.33966 13.6868 9.24676 13.4751 9.19715C13.2633 9.14755 13.0436 9.1423 12.8297 9.18175C12.6158 9.2212 12.4124 9.30449 12.2323 9.42638C12.0522 9.54827 11.8992 9.70613 11.7831 9.89001L9.2161 13.87C9.13181 14.001 9.09667 14.1577 9.11691 14.3121C9.13716 14.4666 9.21147 14.6089 9.32666 14.7138C9.44185 14.8187 9.59048 14.8794 9.74617 14.8851C9.90185 14.8908 10.0545 14.8412 10.1771 14.745L12.7331 12.696C12.8422 12.6132 12.9753 12.5682 13.1123 12.5679C13.2492 12.5675 13.3826 12.6118 13.4921 12.694L15.9441 14.534C16.1182 14.6645 16.3175 14.7576 16.5293 14.8073C16.7412 14.857 16.9611 14.8622 17.1751 14.8228C17.3891 14.7833 17.5926 14.7 17.7728 14.578C17.953 14.456 18.106 14.298 18.2221 14.114L20.7901 10.132Z" fill="black"/>
<defs>
<filter id="filter0_d_1_3771" x="0.133789" y="1.12515" width="29.7554" height="29.7451" filterUnits="userSpaceOnUse" color-interpolation-filters="sRGB">
<feFlood flood-opacity="0" result="BackgroundImageFix"/>
<feColorMatrix in="SourceAlpha" type="matrix" values="0 0 0 0 0 0 0 0 0 0 0 0 0 0 0 0 0 0 127 0" result="hardAlpha"/>
<feOffset dy="4"/>
<feGaussianBlur stdDeviation="2"/>
<feComposite in2="hardAlpha" operator="out"/>
<feColorMatrix type="matrix" values="0 0 0 0 0 0 0 0 0 0 0 0 0 0 0 0 0 0 0.25 0"/>
<feBlend mode="normal" in2="BackgroundImageFix" result="effect1_dropShadow_1_3771"/>
<feBlend mode="normal" in="SourceGraphic" in2="effect1_dropShadow_1_3771" result="shape"/>
</filter>
</defs>
</svg>
